<?xml version="1.0" encoding="utf-8"?>
<svg viewBox="0 0 500 500" xmlns="http://www.w3.org/2000/svg">
  <path stroke="rgb(255,0,0)" stroke-width="0" d="M 282.516 153.996 C 295.007 151.224 302.033 153.044 315.187 153.996 C 332.393 155.241 360.229 157.575 378.421 162.619 C 394.328 167.029 410.969 175.505 419.523 180.823 C 424.875 184.151 426.791 186.597 429.535 189.925 C 432.203 193.161 435.175 198.426 435.858 200.464 C 436.186 201.443 435.538 201.013 435.858 202.381 C 436.963 207.103 446.606 228.649 450.612 242.622 C 454.745 257.038 461.404 280.311 460.097 287.654 C 459.488 291.078 457.568 292.316 455.355 292.924 C 452.837 293.614 448.512 294.269 445.343 290.528 C 438.153 282.041 433.478 236.931 426.374 219.628 C 421.323 207.327 419.091 199.846 410.037 192.32 C 399.302 183.397 378.923 176.671 362.613 172.2 C 346.587 167.806 327.176 166.057 313.078 165.492 C 301.658 165.035 294.456 165.186 283.569 167.409 C 270.504 170.078 246.265 178.109 239.834 182.26 C 236.845 184.189 237.182 186.715 236.145 187.529 C 235.555 187.993 234.486 187.604 234.563 188.008 C 234.727 188.854 239.935 190.761 242.995 193.758 C 247.396 198.068 255.138 210.139 257.749 213.399 C 258.9 214.836 258.84 214.096 259.858 215.795 C 262.558 220.306 271.662 237.876 274.612 248.371 C 277.3 257.935 278.545 268.576 277.773 276.156 C 277.162 282.162 274.511 288.496 272.504 291.008 C 271.357 292.444 270.408 292.022 268.815 292.924 C 266.452 294.261 263.502 297.269 259.331 298.672 C 253.971 300.476 244.089 301.577 238.252 301.547 C 233.647 301.523 231.298 301.525 226.66 299.63 C 219.764 296.816 207.398 289.105 200.839 282.864 C 195.003 277.311 191.014 270.576 188.192 264.659 C 185.698 259.431 184.399 251.904 183.976 249.329 C 183.795 248.222 183.912 248.678 183.976 247.413 C 184.16 243.826 182.605 230.396 186.085 221.543 C 190.167 211.159 205.888 193.233 209.797 189.446 C 211.164 188.122 212.948 188.753 212.432 188.008 C 211.025 185.982 183.877 176.915 177.126 176.033 C 173.802 175.598 172.294 176.866 170.803 176.99 C 169.847 177.07 169.841 176.94 168.695 176.99 C 166.345 177.095 158.399 177.844 156.049 177.948 C 154.902 177.999 155.218 177.837 153.94 177.948 C 150.782 178.224 141.763 178.328 133.916 180.823 C 123.257 184.213 101.831 195.068 95.449 199.506 C 92.295 201.7 92.549 203.079 90.706 204.776 C 88.726 206.6 86.204 207.739 83.856 210.045 C 80.968 212.885 76.619 219.195 74.898 221.064 C 74.096 221.935 73.994 221.572 73.318 222.501 C 71.883 224.471 68.943 232.494 66.993 234.478 C 65.888 235.602 65.161 234.175 63.832 235.915 C 59.597 241.462 50.128 283.553 42.754 291.008 C 38.982 294.822 33.273 295.224 31.161 293.882 C 29.039 292.533 29.781 284.929 30.108 282.864 C 30.276 281.792 31.161 281.585 31.161 280.947 C 31.161 280.308 29.883 280.565 30.108 279.031 C 30.986 273.041 53.375 227.623 59.09 220.106 C 61.218 217.307 62.092 218.564 63.832 216.753 C 66.458 214.02 69.647 206.949 72.791 203.818 C 75.323 201.295 78.549 200.542 80.694 198.548 C 82.705 196.68 83.212 194.086 85.437 192.32 C 87.951 190.326 93.646 189.083 95.449 187.529 C 96.581 186.555 95.586 185.876 97.031 184.656 C 100.327 181.869 112.319 175.502 121.269 172.2 C 130.817 168.677 148.668 164.518 152.887 164.535 C 154.36 164.541 153.758 165.375 154.994 165.492 C 157.579 165.738 167.151 163.777 169.749 163.577 C 170.937 163.485 170.516 163.511 171.857 163.577 C 175.423 163.751 187.721 163.296 196.097 165.492 C 205.556 167.975 213.682 179.171 225.606 178.906 C 241.066 178.564 266.257 157.603 282.516 153.996 Z M 221.917 196.153 C 219.139 196.16 215.842 202.535 214.539 203.818 C 213.958 204.39 214.097 203.978 213.485 204.776 C 211.45 207.438 199.318 225.312 198.731 228.73 C 198.52 229.961 199.686 229.793 199.785 230.646 C 199.923 231.83 198.657 234.079 198.731 235.436 C 198.792 236.558 199.675 237.026 199.785 238.311 C 199.944 240.177 198.393 242.827 198.731 245.975 C 199.194 250.29 201.237 257.196 204 262.264 C 206.818 267.43 210.445 272.356 215.594 276.635 C 221.36 281.429 230.139 287.936 237.725 289.091 C 244.915 290.186 255.962 286.979 259.858 284.301 C 262.424 282.535 262.697 281.084 263.019 277.594 C 263.593 271.367 261.3 257.329 257.749 246.934 C 253.894 235.643 244.162 218.402 239.834 212.441 C 237.665 209.454 235.881 208.848 234.563 207.651 C 233.65 206.82 233.552 206.731 232.456 205.734 C 230.369 203.837 225.03 196.145 221.917 196.153 Z" style="stroke: rgb(129, 151, 57); stroke-width: 2px;"/>
</svg>